<svg width="1280" height="420" viewBox="0 0 1280 420" fill="none" xmlns="http://www.w3.org/2000/svg" role="img" aria-label="closss profile banner">
  <defs>
    <linearGradient id="bg" x1="0" y1="0" x2="1280" y2="420" gradientUnits="userSpaceOnUse">
      <stop stop-color="#05060A"/>
      <stop offset="0.44" stop-color="#08101F"/>
      <stop offset="1" stop-color="#0B0614"/>
    </linearGradient>
    <radialGradient id="aura" cx="0" cy="0" r="1" gradientUnits="userSpaceOnUse" gradientTransform="translate(810 180) rotate(142) scale(520 260)">
      <stop stop-color="#34D399" stop-opacity="0.42"/>
      <stop offset="0.42" stop-color="#38BDF8" stop-opacity="0.18"/>
      <stop offset="1" stop-color="#05060A" stop-opacity="0"/>
    </radialGradient>
    <radialGradient id="core" cx="0" cy="0" r="1" gradientUnits="userSpaceOnUse" gradientTransform="translate(902 211) rotate(90) scale(130)">
      <stop stop-color="#F8FAFC"/>
      <stop offset="0.16" stop-color="#5EEAD4"/>
      <stop offset="0.42" stop-color="#38BDF8"/>
      <stop offset="1" stop-color="#0EA5E9" stop-opacity="0"/>
    </radialGradient>
    <linearGradient id="line" x1="236" y1="92" x2="938" y2="340" gradientUnits="userSpaceOnUse">
      <stop stop-color="#5EEAD4"/>
      <stop offset="0.5" stop-color="#38BDF8"/>
      <stop offset="1" stop-color="#A78BFA"/>
    </linearGradient>
    <filter id="glow" x="-30%" y="-30%" width="160%" height="160%">
      <feGaussianBlur stdDeviation="7" result="blur"/>
      <feColorMatrix in="blur" type="matrix" values="0 0 0 0 0.25 0 0 0 0 0.85 0 0 0 0 1 0 0 0 0.85 0"/>
      <feMerge>
        <feMergeNode/>
        <feMergeNode in="SourceGraphic"/>
      </feMerge>
    </filter>
    <pattern id="grid" width="42" height="42" patternUnits="userSpaceOnUse">
      <path d="M42 0H0V42" stroke="#94A3B8" stroke-opacity="0.08"/>
    </pattern>
    <style>
      @keyframes orbit {
        from { stroke-dashoffset: 0; }
        to { stroke-dashoffset: -520; }
      }
      @keyframes pulse {
        0%, 100% { opacity: .48; transform: scale(1); }
        50% { opacity: .92; transform: scale(1.025); }
      }
      @keyframes drift {
        0%, 100% { transform: translate3d(0, 0, 0); opacity: .62; }
        50% { transform: translate3d(22px, -10px, 0); opacity: 1; }
      }
      .orbit-line {
        stroke-dasharray: 18 18;
        animation: orbit 14s linear infinite;
      }
      .pulse {
        transform-box: fill-box;
        transform-origin: center;
        animation: pulse 5.5s ease-in-out infinite;
      }
      .drift {
        animation: drift 8s ease-in-out infinite;
      }
      .mono {
        font-family: ui-monospace, SFMono-Regular, Menlo, Monaco, Consolas, "Liberation Mono", monospace;
      }
      .sans {
        font-family: Inter, ui-sans-serif, system-ui, -apple-system, BlinkMacSystemFont, "Segoe UI", sans-serif;
      }
    </style>
  </defs>
  <rect width="1280" height="420" rx="0" fill="url(#bg)"/>
  <rect width="1280" height="420" fill="url(#grid)"/>
  <rect width="1280" height="420" fill="url(#aura)"/>
  <path d="M0 354C181 290 320 310 438 333C614 368 760 409 1028 318C1124 285 1204 278 1280 284V420H0V354Z" fill="#020617" fill-opacity="0.48"/>
  <path d="M0 332C185 272 333 283 468 313C641 351 778 374 996 296C1106 257 1198 245 1280 250" stroke="#38BDF8" stroke-opacity="0.16"/>
  <g opacity="0.75">
    <path d="M84 92H314" stroke="#94A3B8" stroke-opacity="0.14"/>
    <path d="M84 125H244" stroke="#94A3B8" stroke-opacity="0.12"/>
    <path d="M84 158H276" stroke="#94A3B8" stroke-opacity="0.1"/>
    <path d="M988 78H1194" stroke="#94A3B8" stroke-opacity="0.14"/>
    <path d="M1038 112H1194" stroke="#94A3B8" stroke-opacity="0.1"/>
    <path d="M1010 146H1194" stroke="#94A3B8" stroke-opacity="0.08"/>
  </g>
  <g class="drift" opacity="0.95">
    <circle cx="1094" cy="80" r="2" fill="#E0F2FE"/>
    <circle cx="1148" cy="172" r="1.5" fill="#A7F3D0"/>
    <circle cx="1040" cy="220" r="1.2" fill="#DDD6FE"/>
    <circle cx="726" cy="68" r="1.3" fill="#E0F2FE"/>
    <circle cx="628" cy="322" r="1.5" fill="#A7F3D0"/>
    <circle cx="214" cy="236" r="1.4" fill="#DDD6FE"/>
  </g>
  <g filter="url(#glow)" transform="translate(812 56)">
    <ellipse class="orbit-line" cx="112" cy="154" rx="242" ry="72" stroke="url(#line)" stroke-width="2.4" transform="rotate(-18 112 154)"/>
    <ellipse class="orbit-line" cx="112" cy="154" rx="202" ry="58" stroke="#5EEAD4" stroke-opacity="0.52" stroke-width="1.5" transform="rotate(22 112 154)"/>
    <ellipse class="orbit-line" cx="112" cy="154" rx="150" ry="42" stroke="#A78BFA" stroke-opacity="0.45" stroke-width="1.4" transform="rotate(68 112 154)"/>
    <circle class="pulse" cx="112" cy="154" r="58" fill="url(#core)"/>
    <circle cx="112" cy="154" r="13" fill="#ECFEFF"/>
    <circle cx="289" cy="91" r="5" fill="#A7F3D0"/>
    <circle cx="-43" cy="201" r="4" fill="#38BDF8"/>
    <circle cx="215" cy="255" r="3.5" fill="#C4B5FD"/>
  </g>
  <g transform="translate(76 82)">
    <text class="mono" x="0" y="0" fill="#67E8F9" font-size="18" opacity="0.92">closss@github</text>
    <text class="sans" x="0" y="72" fill="#F8FAFC" font-size="70" font-weight="800">quiet systems,</text>
    <text class="sans" x="0" y="148" fill="#F8FAFC" font-size="70" font-weight="800">sharp interfaces.</text>
    <rect x="2" y="184" width="560" height="1" fill="url(#line)" opacity="0.72"/>
    <text class="mono" x="0" y="232" fill="#CBD5E1" font-size="22">AI tools / visual computing / clean engineering</text>
  </g>
  <g class="mono" font-size="15">
    <rect x="76" y="340" width="108" height="32" rx="16" fill="#0F172A" stroke="#22D3EE" stroke-opacity="0.38"/>
    <text x="99" y="361" fill="#BAE6FD">TypeScript</text>
    <rect x="196" y="340" width="86" height="32" rx="16" fill="#0F172A" stroke="#34D399" stroke-opacity="0.38"/>
    <text x="220" y="361" fill="#BBF7D0">Python</text>
    <rect x="294" y="340" width="90" height="32" rx="16" fill="#0F172A" stroke="#A78BFA" stroke-opacity="0.38"/>
    <text x="318" y="361" fill="#DDD6FE">Three.js</text>
    <rect x="396" y="340" width="68" height="32" rx="16" fill="#0F172A" stroke="#38BDF8" stroke-opacity="0.38"/>
    <text x="421" y="361" fill="#BAE6FD">LLM</text>
  </g>
</svg>
